<mxfile host="Electron" modified="2023-12-07T04:12:44.276Z" agent="Mozilla/5.0 (Windows NT 10.0; Win64; x64) AppleWebKit/537.36 (KHTML, like Gecko) draw.io/22.0.2 Chrome/114.0.5735.289 Electron/25.8.4 Safari/537.36" etag="HeG1jSAdUyGs6WQTiA4O" version="22.0.2" type="device">
  <diagram name="Страница — 1" id="TaNWmWMQ34JauHTfpsKO">
    <mxGraphModel dx="808" dy="478" grid="1" gridSize="10" guides="1" tooltips="1" connect="1" arrows="1" fold="1" page="1" pageScale="1" pageWidth="827" pageHeight="1169" math="0" shadow="0">
      <root>
        <mxCell id="0" />
        <mxCell id="1" parent="0" />
        <mxCell id="ltOA12D_tGIVQJF7fXKb-10" style="edgeStyle=orthogonalEdgeStyle;rounded=0;orthogonalLoop=1;jettySize=auto;html=1;startArrow=none;startFill=0;" parent="1" source="ltOA12D_tGIVQJF7fXKb-2" target="ltOA12D_tGIVQJF7fXKb-5" edge="1">
          <mxGeometry relative="1" as="geometry" />
        </mxCell>
        <mxCell id="ltOA12D_tGIVQJF7fXKb-15" value="Запрос на проигрывание звука" style="edgeLabel;html=1;align=center;verticalAlign=middle;resizable=0;points=[];" parent="ltOA12D_tGIVQJF7fXKb-10" vertex="1" connectable="0">
          <mxGeometry x="-0.1746" y="-1" relative="1" as="geometry">
            <mxPoint x="54" y="14" as="offset" />
          </mxGeometry>
        </mxCell>
        <mxCell id="ltOA12D_tGIVQJF7fXKb-2" value="Game&lt;br&gt;Cycle" style="rounded=0;whiteSpace=wrap;html=1;" parent="1" vertex="1">
          <mxGeometry x="230" y="360" width="90" height="40" as="geometry" />
        </mxCell>
        <mxCell id="ltOA12D_tGIVQJF7fXKb-9" style="edgeStyle=orthogonalEdgeStyle;rounded=0;orthogonalLoop=1;jettySize=auto;html=1;" parent="1" source="ltOA12D_tGIVQJF7fXKb-3" target="ltOA12D_tGIVQJF7fXKb-4" edge="1">
          <mxGeometry relative="1" as="geometry" />
        </mxCell>
        <mxCell id="ltOA12D_tGIVQJF7fXKb-19" value="Элементы интерфейса" style="edgeLabel;html=1;align=center;verticalAlign=middle;resizable=0;points=[];" parent="ltOA12D_tGIVQJF7fXKb-9" vertex="1" connectable="0">
          <mxGeometry x="-0.254" y="-2" relative="1" as="geometry">
            <mxPoint as="offset" />
          </mxGeometry>
        </mxCell>
        <mxCell id="ltOA12D_tGIVQJF7fXKb-3" value="Graphics" style="rounded=0;whiteSpace=wrap;html=1;" parent="1" vertex="1">
          <mxGeometry x="470" y="360" width="90" height="40" as="geometry" />
        </mxCell>
        <mxCell id="ltOA12D_tGIVQJF7fXKb-27" style="edgeStyle=orthogonalEdgeStyle;rounded=0;orthogonalLoop=1;jettySize=auto;html=1;" parent="1" source="ltOA12D_tGIVQJF7fXKb-4" target="ltOA12D_tGIVQJF7fXKb-33" edge="1">
          <mxGeometry relative="1" as="geometry" />
        </mxCell>
        <mxCell id="ltOA12D_tGIVQJF7fXKb-28" value="Итоговое изображение" style="edgeLabel;html=1;align=center;verticalAlign=middle;resizable=0;points=[];" parent="ltOA12D_tGIVQJF7fXKb-27" vertex="1" connectable="0">
          <mxGeometry x="-0.0774" y="1" relative="1" as="geometry">
            <mxPoint as="offset" />
          </mxGeometry>
        </mxCell>
        <mxCell id="ltOA12D_tGIVQJF7fXKb-4" value="UI" style="rounded=0;whiteSpace=wrap;html=1;" parent="1" vertex="1">
          <mxGeometry x="470" y="470" width="90" height="40" as="geometry" />
        </mxCell>
        <mxCell id="ltOA12D_tGIVQJF7fXKb-35" style="edgeStyle=orthogonalEdgeStyle;rounded=0;orthogonalLoop=1;jettySize=auto;html=1;" parent="1" source="ltOA12D_tGIVQJF7fXKb-5" target="ltOA12D_tGIVQJF7fXKb-34" edge="1">
          <mxGeometry relative="1" as="geometry" />
        </mxCell>
        <mxCell id="ltOA12D_tGIVQJF7fXKb-36" value="Звук" style="edgeLabel;html=1;align=center;verticalAlign=middle;resizable=0;points=[];" parent="ltOA12D_tGIVQJF7fXKb-35" vertex="1" connectable="0">
          <mxGeometry x="0.0084" y="-1" relative="1" as="geometry">
            <mxPoint as="offset" />
          </mxGeometry>
        </mxCell>
        <mxCell id="ltOA12D_tGIVQJF7fXKb-5" value="Audio" style="rounded=0;whiteSpace=wrap;html=1;" parent="1" vertex="1">
          <mxGeometry x="320" y="470" width="90" height="40" as="geometry" />
        </mxCell>
        <mxCell id="ltOA12D_tGIVQJF7fXKb-8" style="edgeStyle=orthogonalEdgeStyle;rounded=0;orthogonalLoop=1;jettySize=auto;html=1;" parent="1" source="ltOA12D_tGIVQJF7fXKb-2" target="ltOA12D_tGIVQJF7fXKb-3" edge="1">
          <mxGeometry relative="1" as="geometry" />
        </mxCell>
        <mxCell id="ltOA12D_tGIVQJF7fXKb-18" value="Сцена" style="edgeLabel;html=1;align=center;verticalAlign=middle;resizable=0;points=[];" parent="ltOA12D_tGIVQJF7fXKb-8" vertex="1" connectable="0">
          <mxGeometry x="-0.1762" relative="1" as="geometry">
            <mxPoint x="8" as="offset" />
          </mxGeometry>
        </mxCell>
        <mxCell id="ltOA12D_tGIVQJF7fXKb-20" style="edgeStyle=orthogonalEdgeStyle;rounded=0;orthogonalLoop=1;jettySize=auto;html=1;startArrow=classic;startFill=1;entryX=0.25;entryY=1;entryDx=0;entryDy=0;" parent="1" source="ltOA12D_tGIVQJF7fXKb-6" target="ltOA12D_tGIVQJF7fXKb-2" edge="1">
          <mxGeometry relative="1" as="geometry" />
        </mxCell>
        <mxCell id="ltOA12D_tGIVQJF7fXKb-22" value="Событие ввода" style="edgeLabel;html=1;align=center;verticalAlign=middle;resizable=0;points=[];" parent="ltOA12D_tGIVQJF7fXKb-20" vertex="1" connectable="0">
          <mxGeometry x="-0.0794" y="-1" relative="1" as="geometry">
            <mxPoint as="offset" />
          </mxGeometry>
        </mxCell>
        <mxCell id="ltOA12D_tGIVQJF7fXKb-6" value="Input" style="rounded=0;whiteSpace=wrap;html=1;" parent="1" vertex="1">
          <mxGeometry x="140" y="470" width="90" height="40" as="geometry" />
        </mxCell>
        <mxCell id="ltOA12D_tGIVQJF7fXKb-24" style="edgeStyle=orthogonalEdgeStyle;rounded=0;orthogonalLoop=1;jettySize=auto;html=1;startArrow=classic;startFill=1;" parent="1" source="ltOA12D_tGIVQJF7fXKb-23" target="ltOA12D_tGIVQJF7fXKb-2" edge="1">
          <mxGeometry relative="1" as="geometry" />
        </mxCell>
        <mxCell id="ltOA12D_tGIVQJF7fXKb-25" value="Сцена" style="edgeLabel;html=1;align=center;verticalAlign=middle;resizable=0;points=[];" parent="ltOA12D_tGIVQJF7fXKb-24" vertex="1" connectable="0">
          <mxGeometry x="-0.1299" y="2" relative="1" as="geometry">
            <mxPoint x="12" y="2" as="offset" />
          </mxGeometry>
        </mxCell>
        <mxCell id="ltOA12D_tGIVQJF7fXKb-23" value="SceneManager" style="rounded=0;whiteSpace=wrap;html=1;" parent="1" vertex="1">
          <mxGeometry x="30" y="360" width="90" height="40" as="geometry" />
        </mxCell>
        <mxCell id="ltOA12D_tGIVQJF7fXKb-33" value="Display" style="rounded=0;whiteSpace=wrap;html=1;fillColor=#fff2cc;strokeColor=#d6b656;" parent="1" vertex="1">
          <mxGeometry x="470" y="560" width="90" height="40" as="geometry" />
        </mxCell>
        <mxCell id="ltOA12D_tGIVQJF7fXKb-34" value="Sound Device" style="rounded=0;whiteSpace=wrap;html=1;fillColor=#fff2cc;strokeColor=#d6b656;" parent="1" vertex="1">
          <mxGeometry x="368.5" y="560" width="90" height="40" as="geometry" />
        </mxCell>
        <mxCell id="ltOA12D_tGIVQJF7fXKb-40" style="edgeStyle=orthogonalEdgeStyle;rounded=0;orthogonalLoop=1;jettySize=auto;html=1;entryX=1;entryY=0.5;entryDx=0;entryDy=0;exitX=0.25;exitY=0;exitDx=0;exitDy=0;" parent="1" source="ltOA12D_tGIVQJF7fXKb-39" target="ltOA12D_tGIVQJF7fXKb-6" edge="1">
          <mxGeometry relative="1" as="geometry" />
        </mxCell>
        <mxCell id="ltOA12D_tGIVQJF7fXKb-41" value="Ввод пользователя" style="edgeLabel;html=1;align=center;verticalAlign=middle;resizable=0;points=[];" parent="ltOA12D_tGIVQJF7fXKb-40" vertex="1" connectable="0">
          <mxGeometry x="-0.25" y="1" relative="1" as="geometry">
            <mxPoint x="8" y="16" as="offset" />
          </mxGeometry>
        </mxCell>
        <mxCell id="ltOA12D_tGIVQJF7fXKb-39" value="Input Device" style="rounded=0;whiteSpace=wrap;html=1;fillColor=#fff2cc;strokeColor=#d6b656;" parent="1" vertex="1">
          <mxGeometry x="260" y="560" width="90" height="40" as="geometry" />
        </mxCell>
        <mxCell id="0JHCsScPGkqJMvND-MfC-5" style="edgeStyle=elbowEdgeStyle;rounded=0;orthogonalLoop=1;jettySize=auto;html=1;entryX=0;entryY=0.5;entryDx=0;entryDy=0;" edge="1" parent="1" source="0JHCsScPGkqJMvND-MfC-1" target="0JHCsScPGkqJMvND-MfC-2">
          <mxGeometry relative="1" as="geometry">
            <Array as="points">
              <mxPoint x="40" y="710" />
            </Array>
          </mxGeometry>
        </mxCell>
        <mxCell id="0JHCsScPGkqJMvND-MfC-6" style="edgeStyle=elbowEdgeStyle;rounded=0;orthogonalLoop=1;jettySize=auto;html=1;entryX=0;entryY=0.5;entryDx=0;entryDy=0;" edge="1" parent="1" source="0JHCsScPGkqJMvND-MfC-1" target="0JHCsScPGkqJMvND-MfC-3">
          <mxGeometry relative="1" as="geometry">
            <Array as="points">
              <mxPoint x="40" y="730" />
            </Array>
          </mxGeometry>
        </mxCell>
        <mxCell id="0JHCsScPGkqJMvND-MfC-1" value="ScenesContainer" style="rounded=0;whiteSpace=wrap;html=1;fillColor=#e1d5e7;strokeColor=#9673a6;" vertex="1" parent="1">
          <mxGeometry x="30" y="650" width="100" height="40" as="geometry" />
        </mxCell>
        <mxCell id="0JHCsScPGkqJMvND-MfC-8" style="edgeStyle=elbowEdgeStyle;rounded=0;orthogonalLoop=1;jettySize=auto;html=1;entryX=0;entryY=0.5;entryDx=0;entryDy=0;" edge="1" parent="1" source="0JHCsScPGkqJMvND-MfC-2" target="0JHCsScPGkqJMvND-MfC-7">
          <mxGeometry relative="1" as="geometry">
            <Array as="points">
              <mxPoint x="70" y="740" />
            </Array>
          </mxGeometry>
        </mxCell>
        <mxCell id="0JHCsScPGkqJMvND-MfC-10" style="edgeStyle=elbowEdgeStyle;rounded=0;orthogonalLoop=1;jettySize=auto;html=1;entryX=0;entryY=0.5;entryDx=0;entryDy=0;" edge="1" parent="1" source="0JHCsScPGkqJMvND-MfC-2" target="0JHCsScPGkqJMvND-MfC-9">
          <mxGeometry relative="1" as="geometry">
            <Array as="points">
              <mxPoint x="70" y="763" />
            </Array>
          </mxGeometry>
        </mxCell>
        <mxCell id="0JHCsScPGkqJMvND-MfC-2" value="Scene" style="rounded=0;whiteSpace=wrap;html=1;fillColor=#fff2cc;strokeColor=#d6b656;" vertex="1" parent="1">
          <mxGeometry x="60" y="700" width="100" height="30" as="geometry" />
        </mxCell>
        <mxCell id="0JHCsScPGkqJMvND-MfC-19" style="edgeStyle=elbowEdgeStyle;rounded=0;orthogonalLoop=1;jettySize=auto;html=1;entryX=0;entryY=0.5;entryDx=0;entryDy=0;" edge="1" parent="1" source="0JHCsScPGkqJMvND-MfC-3" target="0JHCsScPGkqJMvND-MfC-18">
          <mxGeometry relative="1" as="geometry">
            <Array as="points">
              <mxPoint x="70" y="993" />
            </Array>
          </mxGeometry>
        </mxCell>
        <mxCell id="0JHCsScPGkqJMvND-MfC-3" value="Scene" style="rounded=0;whiteSpace=wrap;html=1;fillColor=#fff2cc;strokeColor=#d6b656;" vertex="1" parent="1">
          <mxGeometry x="60" y="940" width="100" height="30" as="geometry" />
        </mxCell>
        <mxCell id="0JHCsScPGkqJMvND-MfC-13" style="edgeStyle=elbowEdgeStyle;rounded=0;orthogonalLoop=1;jettySize=auto;html=1;entryX=0;entryY=0.5;entryDx=0;entryDy=0;" edge="1" parent="1" source="0JHCsScPGkqJMvND-MfC-7" target="0JHCsScPGkqJMvND-MfC-11">
          <mxGeometry relative="1" as="geometry">
            <Array as="points">
              <mxPoint x="100" y="780" />
            </Array>
          </mxGeometry>
        </mxCell>
        <mxCell id="0JHCsScPGkqJMvND-MfC-15" style="edgeStyle=elbowEdgeStyle;rounded=0;orthogonalLoop=1;jettySize=auto;html=1;entryX=0;entryY=0.5;entryDx=0;entryDy=0;" edge="1" parent="1" source="0JHCsScPGkqJMvND-MfC-7" target="0JHCsScPGkqJMvND-MfC-14">
          <mxGeometry relative="1" as="geometry">
            <Array as="points">
              <mxPoint x="100" y="810" />
            </Array>
          </mxGeometry>
        </mxCell>
        <mxCell id="0JHCsScPGkqJMvND-MfC-7" value="GameObject" style="rounded=0;whiteSpace=wrap;html=1;fillColor=#dae8fc;strokeColor=#6c8ebf;" vertex="1" parent="1">
          <mxGeometry x="90" y="740" width="100" height="30" as="geometry" />
        </mxCell>
        <mxCell id="0JHCsScPGkqJMvND-MfC-17" style="edgeStyle=elbowEdgeStyle;rounded=0;orthogonalLoop=1;jettySize=auto;html=1;entryX=0;entryY=0.5;entryDx=0;entryDy=0;" edge="1" parent="1" source="0JHCsScPGkqJMvND-MfC-9" target="0JHCsScPGkqJMvND-MfC-16">
          <mxGeometry relative="1" as="geometry">
            <Array as="points">
              <mxPoint x="100" y="910" />
            </Array>
          </mxGeometry>
        </mxCell>
        <mxCell id="0JHCsScPGkqJMvND-MfC-9" value="GameObject" style="rounded=0;whiteSpace=wrap;html=1;fillColor=#dae8fc;strokeColor=#6c8ebf;" vertex="1" parent="1">
          <mxGeometry x="90" y="860" width="100" height="30" as="geometry" />
        </mxCell>
        <mxCell id="0JHCsScPGkqJMvND-MfC-11" value="Component" style="rounded=0;whiteSpace=wrap;html=1;fillColor=#d5e8d4;strokeColor=#82b366;" vertex="1" parent="1">
          <mxGeometry x="120" y="780" width="100" height="30" as="geometry" />
        </mxCell>
        <mxCell id="0JHCsScPGkqJMvND-MfC-14" value="Component" style="rounded=0;whiteSpace=wrap;html=1;fillColor=#d5e8d4;strokeColor=#82b366;" vertex="1" parent="1">
          <mxGeometry x="120" y="820" width="100" height="30" as="geometry" />
        </mxCell>
        <mxCell id="0JHCsScPGkqJMvND-MfC-16" value="Component" style="rounded=0;whiteSpace=wrap;html=1;fillColor=#d5e8d4;strokeColor=#82b366;" vertex="1" parent="1">
          <mxGeometry x="120" y="900" width="100" height="30" as="geometry" />
        </mxCell>
        <mxCell id="0JHCsScPGkqJMvND-MfC-21" style="edgeStyle=elbowEdgeStyle;rounded=0;orthogonalLoop=1;jettySize=auto;html=1;entryX=0;entryY=0.5;entryDx=0;entryDy=0;" edge="1" parent="1" source="0JHCsScPGkqJMvND-MfC-18" target="0JHCsScPGkqJMvND-MfC-20">
          <mxGeometry relative="1" as="geometry">
            <Array as="points">
              <mxPoint x="100" y="1030" />
            </Array>
          </mxGeometry>
        </mxCell>
        <mxCell id="0JHCsScPGkqJMvND-MfC-18" value="GameObject" style="rounded=0;whiteSpace=wrap;html=1;fillColor=#dae8fc;strokeColor=#6c8ebf;" vertex="1" parent="1">
          <mxGeometry x="90" y="980" width="100" height="30" as="geometry" />
        </mxCell>
        <mxCell id="0JHCsScPGkqJMvND-MfC-20" value="Component" style="rounded=0;whiteSpace=wrap;html=1;fillColor=#d5e8d4;strokeColor=#82b366;" vertex="1" parent="1">
          <mxGeometry x="120" y="1020" width="100" height="30" as="geometry" />
        </mxCell>
        <mxCell id="0JHCsScPGkqJMvND-MfC-23" style="edgeStyle=elbowEdgeStyle;rounded=0;orthogonalLoop=1;jettySize=auto;html=1;" edge="1" parent="1" source="0JHCsScPGkqJMvND-MfC-22">
          <mxGeometry relative="1" as="geometry">
            <mxPoint x="170" y="715" as="targetPoint" />
          </mxGeometry>
        </mxCell>
        <mxCell id="0JHCsScPGkqJMvND-MfC-22" value="Текущая сцена" style="text;html=1;strokeColor=none;fillColor=none;align=center;verticalAlign=middle;whiteSpace=wrap;rounded=0;" vertex="1" parent="1">
          <mxGeometry x="190" y="700" width="100" height="30" as="geometry" />
        </mxCell>
        <mxCell id="0JHCsScPGkqJMvND-MfC-25" style="edgeStyle=elbowEdgeStyle;rounded=0;orthogonalLoop=1;jettySize=auto;html=1;" edge="1" parent="1" source="0JHCsScPGkqJMvND-MfC-24">
          <mxGeometry relative="1" as="geometry">
            <mxPoint x="170" y="955" as="targetPoint" />
          </mxGeometry>
        </mxCell>
        <mxCell id="0JHCsScPGkqJMvND-MfC-24" value="Загруженная сцена" style="text;html=1;strokeColor=none;fillColor=none;align=center;verticalAlign=middle;whiteSpace=wrap;rounded=0;" vertex="1" parent="1">
          <mxGeometry x="200" y="940" width="120" height="30" as="geometry" />
        </mxCell>
      </root>
    </mxGraphModel>
  </diagram>
</mxfile>
